<svg height="512" viewBox="0 0 256 256" width="512" xmlns="http://www.w3.org/2000/svg"><path d="M225.798 202.456l7.095 11.448c.098.158.15.341.15.527v4.146a1 1 0 01-1 1H203.9a1 1 0 01-1-1v-4.357c0-.05.004-.099.011-.148l1.01-6.734v-12.472h22.332z" fill="#f9cfcf"/><path d="M232.043 221.576H203.9c-1.654 0-3-1.346-3-3v-4.356c0-.148.011-.295.033-.442l.989-6.59v-12.323a2 2 0 012-2h22.333a2.002 2.002 0 011.997 2.12l-.418 6.957 6.76 10.908a3 3 0 01.45 1.58v4.146a3.005 3.005 0 01-3.001 3zm-27.143-4h26.143v-2.861l-6.945-11.206a2.003 2.003 0 01-.296-1.174l.329-5.471h-18.209v10.472c0 .099-.007.199-.022.297l-1 6.662zm26.293-2.618h.01z" fill="#3762cc"/><path d="M184.075 171.867a4.999 4.999 0 013.122 2.944l12.365 31.76a1.998 1.998 0 002.299 1.226l28.966-6.463a2 2 0 001.446-2.63l-15.727-43.607a10 10 0 00-5.245-5.7l-47.023-21.523v-6.26h-25.02v35.777z" fill="#e0ebfc"/><path d="M201.41 209.847c-1.619 0-3.1-.98-3.711-2.551l-12.365-31.759a2.989 2.989 0 00-1.873-1.767l-44.817-14.477a2 2 0 01-1.385-1.903v-35.778a2 2 0 012-2h25.02a2 2 0 012 2v4.977l45.855 20.989a12.07 12.07 0 016.294 6.839l15.727 43.607a3.999 3.999 0 01-2.891 5.261l-28.966 6.464a4.108 4.108 0 01-.888.098zm-60.152-53.912l43.432 14.029a6.974 6.974 0 014.371 4.122l12.365 31.759 28.966-6.463-15.727-43.607a8.05 8.05 0 00-4.196-4.56l-47.023-21.523a2 2 0 01-1.167-1.818v-4.261h-21.02v32.322z" fill="#3762cc"/><path d="M115.181 187.416v-15.058h-30.28l-12.702 2.356-7.354-25.264a2.001 2.001 0 00-2.617-1.316l-26.981 10.028 14.755 47.217h65.18v-17.963z" fill="#e0ebfc"/><path d="M115.181 207.379h-65.18a2 2 0 01-1.909-1.403l-14.755-47.217a2 2 0 011.212-2.471L61.53 146.26a4.013 4.013 0 013.19.175 4.018 4.018 0 012.044 2.456l6.848 23.527 10.923-2.026c.12-.022.242-.034.365-.034h30.28a2 2 0 012 2v33.021c.001 1.104-.894 2-1.999 2zm-63.709-4h61.709v-29.021H85.085l-12.521 2.322a1.997 1.997 0 01-2.285-1.407l-7.354-25.265-25.204 9.368z" fill="#3762cc"/><path d="M43.259 147.221v-7.913l-1.667-5.45a2 2 0 00-2.455-1.34l-33.735 9.509a3 3 0 00-2.139 3.415l.435 2.435a2.998 2.998 0 002.446 2.429l21.468 3.681 2.887 8.794 14.627-5.132z" fill="#f9cfcf"/><path d="M30.499 164.781a1.997 1.997 0 01-1.9-1.376l-2.512-7.65-20.281-3.478a5.011 5.011 0 01-4.077-4.049l-.435-2.435a4.982 4.982 0 013.565-5.691l33.735-9.509c2.075-.584 4.279.617 4.911 2.68l1.667 5.45c.058.189.087.387.087.585v7.735l1.836 10.253a2 2 0 01-1.307 2.24l-14.627 5.132a1.981 1.981 0 01-.662.113zm9.181-30.338l-33.735 9.509a.997.997 0 00-.713 1.138l.435 2.435c.074.413.401.739.815.81l21.468 3.681c.73.125 1.331.644 1.563 1.347l2.251 6.855 11.095-3.893-1.567-8.752a1.98 1.98 0 01-.031-.353v-7.614z" fill="#3762cc"/><path d="M95.935 219.575H43.011a5 5 0 01-4.813-3.646l-16.207-57.623a2 2 0 011.131-2.377l24.872-10.756a2 2 0 012.693 1.208l13.556 41.035h50.938v32.159z" fill="#e0ebfc"/><path d="M115.181 221.575h-72.17a7.024 7.024 0 01-6.738-5.104l-16.208-57.623a4.013 4.013 0 012.263-4.754l24.873-10.756c1.028-.444 2.203-.436 3.225.022s1.81 1.332 2.161 2.395l13.103 39.662h49.492a2 2 0 012 2v32.159a2.001 2.001 0 01-2.001 1.999zm-66.392-74.566l-24.873 10.755 16.208 57.623a3.01 3.01 0 002.888 2.188h70.17v-28.159H64.244a2 2 0 01-1.899-1.373z" fill="#3762cc"/><path d="M228.617 183.8l-34.859-10.854a12.985 12.985 0 00-3.865-.588H108.51L95.935 195.71v23.865h72.326l14.678-13.524 16.794 9.931 29.981-20.875a4 4 0 001.714-3.283v-4.205a4.003 4.003 0 00-2.811-3.819z" fill="#e0ebfc"/><path d="M168.261 221.575H95.936a2 2 0 01-2-2V195.71c0-.331.082-.657.239-.948l12.574-23.352a2 2 0 011.761-1.052h81.383c1.514 0 3.014.228 4.46.678l34.859 10.854a5.973 5.973 0 014.216 5.729v4.206a6.001 6.001 0 01-2.572 4.924l-29.98 20.875a1.998 1.998 0 01-2.161.081l-15.514-9.175-13.584 12.516c-.37.34-.854.529-1.356.529zm-70.325-4h69.545l14.104-12.995a2 2 0 012.373-.251l15.687 9.278 28.926-20.141a2 2 0 00.857-1.641v-4.206a1.99 1.99 0 00-1.405-1.909l-34.859-10.854a10.996 10.996 0 00-3.271-.498h-80.188l-11.769 21.856z" fill="#3762cc"/><path d="M168.286 201.039c0-11.071 8.975-20.047 20.047-20.047h7.075c11.071 0 20.047 8.975 20.047 20.047 0 11.071-8.975 20.047-20.047 20.047h-7.075c-11.072-.001-20.047-8.976-20.047-20.047z" fill="#f9cfcf"/><path d="M195.408 223.085h-7.076c-12.156 0-22.046-9.89-22.046-22.047 0-12.156 9.89-22.046 22.046-22.046h7.076c12.156 0 22.046 9.89 22.046 22.046 0 12.157-9.89 22.047-22.046 22.047zm-7.076-40.093c-9.951 0-18.046 8.096-18.046 18.046 0 9.951 8.096 18.047 18.046 18.047h7.076c9.951 0 18.046-8.096 18.046-18.047s-8.096-18.046-18.046-18.046z" fill="#3762cc"/><path d="M108.509 172.358L95.935 195.71v23.865h8.225v-22.82l13.75-24.397z" fill="#4671c6"/><path d="M104.16 221.575h-8.224a2 2 0 01-2-2V195.71c0-.331.082-.657.239-.948l12.574-23.352a2 2 0 011.761-1.052h9.4a2 2 0 011.742 2.982l-13.492 23.939v22.295a2 2 0 01-2 2.001zm-6.224-4h4.224v-20.82a2 2 0 01.258-.982l12.069-21.415h-4.783l-11.769 21.856v21.361z" fill="#3762cc"/><path d="M108.509 172.358H89.535l-8.491 12.199a13.997 13.997 0 00-2.509 7.998v27.02h17.401V195.71z" fill="#e0ebfc"/><path d="M95.936 221.575H78.535a2 2 0 01-2-2v-27.02c0-3.285.992-6.445 2.868-9.14l8.491-12.199a2 2 0 011.642-.857h18.975a1.999 1.999 0 011.761 2.949l-12.334 22.908v23.36a2.004 2.004 0 01-2.002 1.999zm-15.401-4h13.401V195.71c0-.331.082-.657.239-.948l10.986-20.404H90.58L82.686 185.7a11.943 11.943 0 00-2.151 6.855z" fill="#3762cc"/><path d="M222.446 215.876h12.053c.164 0 .326.02.485.06l15.528 3.882a3 3 0 012.272 2.91v1.357a3 3 0 01-3 3h-27.339v-11.209z" fill="#f9cfcf"/><path d="M249.785 229.085h-27.339a2 2 0 01-2-2v-10.184c0-.177.023-.349.066-.512a2 2 0 011.934-2.513h12.053c.326 0 .652.04.969.119l15.529 3.882a4.993 4.993 0 013.787 4.851v1.357a5.004 5.004 0 01-4.999 5zm-25.339-4h25.339c.551 0 1-.449 1-1v-1.357a1 1 0 00-.757-.97l-15.529-3.882h-10.053z" fill="#3762cc"/><path d="M127.371 208.691l10.378 16.96a2.999 2.999 0 002.559 1.434h82.138v-17.394a1 1 0 00-1-1h-58.021l-10.778-20.529z" fill="#e0ebfc"/><path d="M222.446 229.085h-82.138a5.03 5.03 0 01-4.265-2.391l-10.378-16.959a2 2 0 113.412-2.088l10.378 16.959c.181.295.507.479.853.479h80.138v-14.394h-57.021a2.001 2.001 0 01-1.771-1.07l-10.778-20.529a2.001 2.001 0 013.542-1.86l10.216 19.459h56.812c1.654 0 3 1.346 3 3v17.394a2 2 0 01-2 2z" fill="#3762cc"/><path d="M55.637 202.456l-6.945 11.205a2 2 0 00-.3 1.054v2.862a2 2 0 002 2h26.143a2 2 0 002-2v-3.282a1.97 1.97 0 00-.022-.297l-.999-6.661v-12.472H55.181z" fill="#f9cfcf"/><path d="M76.535 221.576H50.392c-2.206 0-4-1.794-4-4v-2.861c0-.746.208-1.475.601-2.108l6.61-10.665-.418-6.957a2 2 0 011.997-2.12h22.333a2 2 0 012 2v12.323l.977 6.513c.029.191.044.392.044.594v3.282a4.006 4.006 0 01-4.001 3.999zm-19.231-24.711l.329 5.471a2.01 2.01 0 01-.296 1.174l-6.945 11.206v2.861h26.143v-3.282l-1-6.661a1.98 1.98 0 01-.022-.297v-10.472z" fill="#3762cc"/><path d="M139.258 121.612h-21.484l-3.327 6.164-47.233 21.619a10.002 10.002 0 00-5.245 5.7l-15.727 43.607a2 2 0 001.446 2.63l28.966 6.463a2 2 0 002.299-1.226l12.365-31.76a4.999 4.999 0 013.122-2.944l44.817-14.477v-35.776z" fill="#e0ebfc"/><path d="M77.106 209.847c-.293 0-.59-.032-.888-.098l-28.965-6.463a4.002 4.002 0 01-2.892-5.261l15.727-43.607a12.072 12.072 0 016.294-6.84l46.623-21.34 3.008-5.575a2 2 0 011.76-1.05h21.484a2 2 0 012 2v35.778a2 2 0 01-1.385 1.903L95.055 173.77a2.985 2.985 0 00-1.873 1.766l-12.365 31.76a3.973 3.973 0 01-3.711 2.551zm41.861-86.235l-2.759 5.114a2 2 0 01-.928.869l-47.233 21.619a8.046 8.046 0 00-4.196 4.56l-15.727 43.607 28.966 6.463 12.365-31.76a6.97 6.97 0 014.371-4.121l43.433-14.029v-32.322z" fill="#3762cc"/><path d="M195.796 79.748l-28.793-13.597-23.586-11.566a9 9 0 00-8.236.16L109.163 68.78a7 7 0 00-3.677 6.161v22.423h15.992l-7.031 30.413 56.29 14.406 4.65-9.454v45.2a2 2 0 002 2h20.993a2 2 0 002-2V86.982a8 8 0 00-4.584-7.234z" fill="#e0ebfc"/><path d="M198.38 181.929h-20.993c-2.206 0-4-1.794-4-4v-36.602l-.854 1.738a1.999 1.999 0 01-2.291 1.055l-56.29-14.406a2.002 2.002 0 01-1.453-2.388l6.464-27.962h-13.477a2 2 0 01-2-2V74.941a8.99 8.99 0 014.727-7.921l26.019-14.036a11.023 11.023 0 0110.065-.195l23.586 11.566 28.767 13.584a10.042 10.042 0 015.73 9.042v90.947a4.004 4.004 0 01-4 4.001zm-22.993-51.2a2 2 0 012.001 2v45.201h20.993V86.982a6.026 6.026 0 00-3.438-5.425L166.149 67.96l-23.613-11.579a7.014 7.014 0 00-6.405.124l-26.019 14.036a4.994 4.994 0 00-2.626 4.4v20.423h13.992a1.998 1.998 0 011.948 2.45l-6.591 28.509 52.824 13.519 3.932-7.997a2.006 2.006 0 011.796-1.116z" fill="#3762cc"/><path d="M125.984 132.73a1.999 1.999 0 01-1.775-2.917c.358-.725 8.463-17.639 8.54-17.798a2 2 0 01.978-.959l30.04-13.641a2 2 0 111.654 3.642l-29.377 13.34c-1.542 3.219-8.207 17.131-8.326 17.336a2.004 2.004 0 01-1.734.997z" fill="#3762cc"/><path d="M167.003 66.151l-8.602-4.218-6.653 22.848-1.052 20.766 13.896-6.311 20.811-24.396z" fill="#f9cfcf"/><path d="M150.696 107.546a2 2 0 01-1.997-2.101l1.052-20.766c.008-.155.034-.309.077-.458l6.653-22.848a2 2 0 012.801-1.237l8.589 4.212 18.387 8.682a2 2 0 01.668 3.106l-20.811 24.396c-.19.223-.427.402-.694.523l-13.896 6.311c-.266.121-.548.18-.829.18zm3.038-22.431l-.875 17.252 10.5-4.768 18.824-22.067-16.035-7.572-.026-.013-6.466-3.171zM175.387 134.729a2 2 0 01-2-2V99.236a2 2 0 014 0v33.493a2 2 0 01-2 2z" fill="#3762cc"/><g><path d="M168.024 74.988c-10.146-5.858-13.623-18.832-7.765-28.979l3.744-6.484c5.858-10.146 18.832-13.623 28.979-7.765 10.146 5.858 13.623 18.832 7.765 28.979l-3.744 6.484c-5.858 10.147-18.832 13.623-28.979 7.765z" fill="#f9cfcf"/></g><g><path d="M178.593 79.84a23.08 23.08 0 01-11.569-3.12c-11.085-6.4-14.897-20.626-8.497-31.711l3.744-6.484c6.401-11.084 20.626-14.896 31.711-8.497 11.085 6.4 14.897 20.626 8.497 31.711l-3.744 6.484a23.061 23.061 0 01-14.095 10.816c-2 .536-4.03.801-6.047.801zm-9.569-6.584c9.177 5.298 20.95 2.141 26.247-7.033l3.744-6.484c5.297-9.175 2.143-20.949-7.033-26.247-9.175-5.297-20.95-2.143-26.247 7.033l-3.744 6.484c-5.297 9.176-2.142 20.949 7.033 26.247z" fill="#3762cc"/></g><g><path d="M114.45 129.777a2 2 0 01-1.951-2.451l10.44-45.16a37.998 37.998 0 013.321-8.994l6.601-12.673a2.001 2.001 0 013.548 1.848l-6.601 12.673a34.006 34.006 0 00-2.971 8.047l-10.44 45.161a2.002 2.002 0 01-1.947 1.549z" fill="#3762cc"/></g><g><path d="M125.769 117.579h-22.644a3 3 0 01-3-3v-14.215a3 3 0 013-3h22.644a3 3 0 013 3v14.215a3 3 0 01-3 3z" fill="#f9cfcf"/></g><g><path d="M125.77 119.579h-22.644c-2.757 0-5-2.243-5-5v-14.214c0-2.757 2.243-5 5-5h22.644c2.757 0 5 2.243 5 5v14.214c0 2.756-2.244 5-5 5zm-22.645-20.215c-.551 0-1 .449-1 1v14.214c0 .551.449 1 1 1h22.644c.551 0 1-.449 1-1v-14.214c0-.551-.449-1-1-1z" fill="#3762cc"/></g><g><path d="M114.448 127.777l1.425-6.165 57.859 14.483-2.994 6.088z" fill="#4671c6"/></g><g><path d="M170.738 144.183c-.165 0-.331-.02-.497-.063l-56.29-14.406a2.001 2.001 0 01-1.453-2.388l1.425-6.165a2 2 0 012.435-1.49l57.859 14.483a1.999 1.999 0 011.309 2.823l-2.994 6.087a1.998 1.998 0 01-1.794 1.119zm-53.902-17.859l52.824 13.519 1.185-2.408-53.482-13.387z" fill="#3762cc"/></g><g><path d="M178.91 179.929l-4.206 7.195a4.444 4.444 0 00-.607 2.241v2.443a2 2 0 002 2h23.813a2 2 0 002-2v-2.539c0-.727-.178-1.442-.519-2.083l-3.856-7.256H178.91z" fill="#f9cfcf"/></g><g><path d="M199.91 195.808h-23.813c-2.206 0-4-1.794-4-4v-2.443c0-1.141.304-2.264.879-3.25l4.207-7.195a1.999 1.999 0 011.727-.991h18.625c.74 0 1.419.408 1.766 1.062l3.855 7.256c.493.926.753 1.972.753 3.022v2.54a4.003 4.003 0 01-3.999 3.999zm-19.853-13.879l-3.627 6.204a2.443 2.443 0 00-.333 1.231v2.443h23.813v-2.54c0-.398-.099-.793-.285-1.144l-3.292-6.195h-16.276z" fill="#3762cc"/></g><g><path d="M170.738 142.183l-56.29-14.406-23.049 10.55 14.746 22.753a8 8 0 006.713 3.649h61.169z" fill="#e0ebfc"/></g><g><path d="M174.027 166.729h-61.169a9.965 9.965 0 01-8.392-4.562L89.72 139.415a2.003 2.003 0 01.846-2.906l23.05-10.55c.417-.19.885-.233 1.329-.119l56.29 14.406a2 2 0 011.483 1.649l3.29 22.546a2 2 0 01-1.981 2.288zm-79.692-27.547l13.487 20.81a5.978 5.978 0 005.035 2.737h58.856l-2.763-18.939-54.314-13.9z" fill="#3762cc"/></g><g><path d="M137.301 178.04l4.202-43.339-6.106-1.563-10.305 43.884a2 2 0 001.858 2.455l8.271.367a1.999 1.999 0 002.08-1.804z" fill="#4671c6"/></g><g><path d="M144.09 135.363l4.024 42.754a2 2 0 001.991 1.813h7.631a2 2 0 001.943-2.476l-9.952-40.648z" fill="#4671c6"/></g><g><path d="M135.313 181.847c-.06 0-.12-.001-.181-.004l-8.271-.367c-1.193-.053-2.291-.629-3.012-1.582s-.978-2.166-.705-3.328l10.305-43.885a1.998 1.998 0 012.444-1.48l6.106 1.563a2 2 0 011.495 2.13l-4.202 43.339v.001a4 4 0 01-3.979 3.613zm1.988-3.807h.01zm-.423-42.458l-9.838 41.898 8.271.367 4.037-41.633z" fill="#3762cc"/></g><g><path d="M157.736 181.929h-7.631a3.983 3.983 0 01-3.982-3.625l-4.024-42.754a2 2 0 012.487-2.125l5.637 1.443a1.998 1.998 0 011.446 1.462l9.952 40.648a3.976 3.976 0 01-.738 3.42 3.978 3.978 0 01-3.147 1.531zm-11.389-43.924l3.758 39.924h7.631l-9.667-39.483z" fill="#3762cc"/></g><g><path d="M169.955 57.487a3.06 3.06 0 01-1.12-4.181l1.836-3.18a3.06 3.06 0 115.301 3.061l-1.836 3.18a3.062 3.062 0 01-4.181 1.12zM176.786 71.366a1.98 1.98 0 01-.998-.269l-2.945-1.7a2 2 0 112-3.464l2.945 1.7a2 2 0 01-1.002 3.733zM187.627 67.689a3.06 3.06 0 01-1.12-4.181l1.836-3.18a3.06 3.06 0 115.301 3.061l-1.836 3.18a3.06 3.06 0 01-4.181 1.12z" fill="#3762cc"/></g><g><ellipse cx="160.797" cy="44.251" fill="#f9cfcf" rx="7.214" ry="4.833" transform="rotate(-61.64 160.717 44.27)"/><path d="M159.025 53.002a5.47 5.47 0 01-2.608-.645c-1.717-.928-2.826-2.77-3.042-5.054-.192-2.023.309-4.261 1.412-6.301 1.102-2.04 2.699-3.685 4.497-4.632 2.03-1.07 4.179-1.152 5.894-.224 1.688.912 2.793 2.718 3.032 4.955a2 2 0 01-3.978.424c-.057-.532-.256-1.482-.956-1.86-.742-.402-1.735.037-2.127.244-1.088.573-2.125 1.665-2.844 2.996s-1.065 2.796-.948 4.021c.042.442.22 1.512.961 1.914.239.128.51.181.838.159 1.123-.061 2.057.758 2.131 1.86a2 2 0 01-1.86 2.131 6.744 6.744 0 01-.402.012z" fill="#3762cc"/></g></svg>