<svg height="512" viewBox="0 0 256 256" width="512" xmlns="http://www.w3.org/2000/svg"><path d="M115.673 58.139h90.916v16.514l-90.916 6.799z" fill="#f9cfcf"/><path d="M115.673 83.452a2 2 0 01-2-2V58.139a2 2 0 012-2h90.917a2 2 0 012 2v16.514a2 2 0 01-1.851 1.995l-90.917 6.799a2.5 2.5 0 01-.149.005zm2-23.313v19.158l86.917-6.5V60.139z" fill="#3762cc"/><path d="M209.589 82.618h-8.655c-6.857 0-12.416-5.559-12.416-12.416v-8.655c0-6.857 5.559-12.416 12.416-12.416h8.655c6.857 0 12.416 5.559 12.416 12.416v8.655c0 6.857-5.559 12.416-12.416 12.416z" fill="#f9a7a7"/><path d="M209.589 84.618h-8.654c-7.949 0-14.416-6.467-14.416-14.416v-8.655c0-7.949 6.467-14.416 14.416-14.416h8.654c7.949 0 14.416 6.467 14.416 14.416v8.655c0 7.949-6.467 14.416-14.416 14.416zm-8.654-33.486c-5.744 0-10.416 4.672-10.416 10.416v8.655c0 5.744 4.672 10.416 10.416 10.416h8.654c5.744 0 10.416-4.672 10.416-10.416v-8.655c0-5.743-4.672-10.416-10.416-10.416z" fill="#3762cc"/><path d="M116.546 58.139h-7.49V43.357H87.425v14.782h-7.49a9.414 9.414 0 00-9.414 9.414v60.619h55.439V67.553a9.414 9.414 0 00-9.414-9.414z" fill="#f9cfcf"/><path d="M125.96 130.172H70.521a2 2 0 01-2-2V67.553c0-6.294 5.121-11.414 11.415-11.414h5.489V43.357a2 2 0 012-2h21.632a2 2 0 012 2v12.782h5.49c6.294 0 11.414 5.12 11.414 11.414v60.619a2.002 2.002 0 01-2.001 2zm-53.439-4h51.439V67.553c0-4.088-3.326-7.414-7.414-7.414h-7.49a2 2 0 01-2-2V45.357H89.425v12.782a2 2 0 01-2 2h-7.489c-4.088 0-7.415 3.326-7.415 7.414z" fill="#3762cc"/><path d="M75.575 124.834l-22.049 48.668-1.486 67.207-16.773 6.563a1.999 1.999 0 00-1.271 1.862V251a2 2 0 002 2h32.932a3 3 0 002.965-3.459l-1.286-8.309 6.473-58.285 20.985-36.642.177-21.472H75.575z" fill="#f9cfcf"/><path d="M120.907 124.834l22.049 48.668 1.486 67.207 16.773 6.563a1.999 1.999 0 011.271 1.862V251a2 2 0 01-2 2h-32.932a3 3 0 01-2.965-3.459l1.286-8.309-6.473-58.285-20.985-36.642-.177-21.472h22.667z" fill="#f9cfcf"/><path d="M68.927 255H35.995c-2.206 0-4-1.794-4-4v-1.865c0-1.659.999-3.121 2.543-3.725l15.53-6.078 1.457-65.875c.006-.27.066-.535.178-.781l22.049-48.668a2.001 2.001 0 011.822-1.175H98.24a2 2 0 012 2.017l-.176 21.472a2 2 0 01-.265.978l-20.778 36.281-6.398 57.608 1.246 8.046a4.996 4.996 0 01-1.145 4.019A4.995 4.995 0 0168.927 255zm-13.411-81.045l-1.477 66.798a2 2 0 01-1.271 1.818l-16.772 6.563v1.865h32.932c.4 0 .647-.219.759-.349s.291-.408.229-.804l-1.286-8.308a1.979 1.979 0 01-.011-.527l6.474-58.285c.03-.272.116-.536.252-.773l20.725-36.187.155-18.933h-19.36zm-3.477 66.754h.01z" fill="#3762cc"/><path d="M160.486 255h-32.932a4.993 4.993 0 01-3.796-1.746 4.996 4.996 0 01-1.145-4.019l1.246-8.046-6.398-57.608L96.682 147.3a2 2 0 01-.265-.978l-.177-21.472a1.998 1.998 0 012-2.017h22.666a2 2 0 011.822 1.175l22.049 48.668c.111.246.172.511.178.781l1.457 65.875 15.532 6.078a3.976 3.976 0 012.542 3.725V251c0 2.206-1.794 4-4 4zm-60.073-109.234l20.724 36.188a2 2 0 01.252.773l6.474 58.285c.02.175.016.353-.011.527l-1.286 8.309c-.062.396.117.673.229.804s.359.349.759.349h32.932v-1.865l-16.773-6.563a2.003 2.003 0 01-1.271-1.818l-1.477-66.798-21.349-47.122h-19.36z" fill="#3762cc"/><path d="M145.823 171.213l-21.769-46.379H72.427l-21.769 46.379a1 1 0 00.533 1.353l35.238 14.131a.999.999 0 001.327-.632l10.483-33.839 10.483 33.839a1 1 0 001.327.632l35.239-14.131a1 1 0 00.535-1.353z" fill="#4671c6"/><path d="M86.802 188.768c-.379 0-.758-.072-1.116-.215l-35.238-14.13a3.013 3.013 0 01-1.675-1.684 3.016 3.016 0 01.075-2.375l21.769-46.379a2 2 0 011.811-1.15h51.627c.775 0 1.481.448 1.811 1.15l21.769 46.379c.349.744.377 1.609.076 2.374a3.011 3.011 0 01-1.674 1.686l-35.239 14.13c-.774.31-1.652.283-2.406-.076s-1.329-1.023-1.576-1.821l-8.573-27.672-8.572 27.672a3.008 3.008 0 01-1.576 1.821c-.408.192-.851.29-1.293.29zm-33.883-17.664l33.25 13.333 10.162-32.804a2.001 2.001 0 013.822 0l10.162 32.804 33.249-13.333-20.779-44.271H73.698zm91.094.959h.01zm-.001 0s.001 0 0 0z" fill="#3762cc"/><path d="M100.789 57.023c-12.68 0-22.96-10.279-22.96-22.96V25.96C77.83 13.279 88.109 3 100.789 3c12.68 0 22.96 10.279 22.96 22.96v8.103c0 12.681-10.279 22.96-22.96 22.96z" fill="#f9cfcf"/><path d="M100.79 59.023c-13.763 0-24.96-11.197-24.96-24.96V25.96C75.83 12.197 87.026 1 100.79 1c13.763 0 24.959 11.197 24.959 24.96v8.103c0 13.763-11.197 24.96-24.959 24.96zm0-54.023c-11.557 0-20.96 9.403-20.96 20.96v8.103c0 11.557 9.403 20.96 20.96 20.96s20.959-9.403 20.959-20.96V25.96c0-11.557-9.402-20.96-20.959-20.96z" fill="#3762cc"/><path d="M98.341 35.292a3.269 3.269 0 01-3.269-3.269V28.1a3.269 3.269 0 116.538 0v3.922a3.268 3.268 0 01-3.269 3.27zM109.74 45.592h-3.27a2 2 0 010-4h3.27a2 2 0 010 4zM116.088 34.736a2.922 2.922 0 01-2.922-2.922v-3.505a2.922 2.922 0 115.844 0v3.505a2.922 2.922 0 01-2.922 2.922z" fill="#3762cc"/><ellipse cx="80.333" cy="32.546" fill="#f9cfcf" rx="5.173" ry="8.796"/><path d="M80.333 43.343c-4.022 0-7.173-4.742-7.173-10.796s3.151-10.796 7.173-10.796c2.086 0 3.978 1.231 5.326 3.467a2.001 2.001 0 01-3.426 2.066c-.579-.96-1.289-1.533-1.9-1.533-1.294 0-3.173 2.647-3.173 6.796s1.879 6.796 3.173 6.796c.275 0 .552-.103.846-.315a2 2 0 012.335 3.249c-.971.697-2.071 1.066-3.181 1.066zM98.241 154.225a2 2 0 01-2-2V139.97a2 2 0 014 0v12.255a2 2 0 01-2 2zM94.265 119.9c-.722 0-1.45-.088-2.169-.271a8.826 8.826 0 01-5.906-4.956L68.706 76.825a2 2 0 113.631-1.677l17.493 37.866a4.859 4.859 0 003.251 2.739 4.883 4.883 0 005.226-1.979l24.83-36.431-9.447-5.907c-11.282 15.543-11.553 15.81-11.734 15.988a2 2 0 01-3.215-.581L88.83 65.589a2 2 0 113.625-1.691l8.498 18.224c2.105-2.867 5.8-7.938 10.456-14.355l.14-.192a2 2 0 012.679-.521l12.794 8a2.002 2.002 0 01.592 2.822l-26.001 38.15a8.908 8.908 0 01-7.348 3.874z" fill="#3762cc"/><path d="M118.199 80.88l-7.495-4.327c-5.938-3.429-7.973-11.022-4.544-16.96l4.327-7.495c3.429-5.938 11.022-7.973 16.96-4.544l7.495 4.327c5.938 3.429 7.973 11.022 4.544 16.96l-4.327 7.495c-3.429 5.937-11.022 7.972-16.96 4.544z" fill="#f9a7a7"/><path d="M124.383 84.549a14.33 14.33 0 01-7.185-1.938l-7.495-4.327c-3.335-1.925-5.72-5.034-6.717-8.753s-.485-7.604 1.44-10.938l4.327-7.496c3.975-6.884 12.81-9.25 19.692-5.276l7.495 4.328a14.32 14.32 0 016.716 8.753 14.32 14.32 0 01-1.44 10.939l-4.328 7.495a14.322 14.322 0 01-8.753 6.717c-1.239.331-2.5.496-3.752.496zm-3.126-36.658a10.424 10.424 0 00-9.039 5.206l-4.327 7.496c-1.391 2.409-1.761 5.216-1.041 7.903s2.443 4.934 4.853 6.325l7.495 4.327a10.349 10.349 0 007.904 1.041 10.345 10.345 0 006.324-4.853l4.328-7.495a10.346 10.346 0 001.04-7.903 10.344 10.344 0 00-4.853-6.325l-7.495-4.328a10.343 10.343 0 00-5.189-1.394z" fill="#3762cc"/><g><path d="M92.624 97.625a1.999 1.999 0 01-1.543-3.271l7.928-9.628a2 2 0 113.087 2.543l-7.928 9.628a1.997 1.997 0 01-1.544.728z" fill="#3762cc"/></g></svg>