<svg height="488pt" viewBox="0 -54 488.444 488" width="488pt" xmlns="http://www.w3.org/2000/svg"><path d="M168.223 164.172V92.117h124.023v72.059c0 22.539-18.27 40.812-40.812 40.812h-42.399c-22.543-.004-40.812-18.273-40.812-40.816zm0 0" fill="#f9cfcf"/><path d="M86.223 90.223h316v48h-316zm0 0" fill="#e0ebfc"/><path d="M251.434 204.984h-42.399c-7.91 0-15.27-2.289-21.523-6.183l-10.008 177.125h105.46L272.958 198.8c-6.25 3.898-13.61 6.183-21.523 6.183zm0 0" fill="#f9cfcf"/><path d="M282.969 379.926H177.504a4 4 0 01-2.906-1.25 4 4 0 01-1.086-2.977l10.008-177.125a3.984 3.984 0 012.148-3.32 3.997 3.997 0 013.957.152c5.863 3.649 12.574 5.578 19.41 5.578h42.403c6.835 0 13.546-1.93 19.41-5.578a3.997 3.997 0 013.957-.152 3.988 3.988 0 012.152 3.32L286.961 375.7a3.994 3.994 0 01-3.992 4.227zm-101.235-8h97l-9.418-166.696a44.515 44.515 0 01-17.878 3.754h-42.403a44.528 44.528 0 01-17.879-3.754zm0 0M402.223 142.223h-316c-2.207 0-4-1.793-4-4v-48c0-2.207 1.793-4 4-4h316c2.207 0 4 1.793 4 4v48a4 4 0 01-4 4zm-312-8h308v-40h-308zm0 0" fill="#3762cc"/><g fill="#f9cfcf"><path d="M230.234 113.977V55.449c0-4.855 3.942-8.797 8.797-8.797h13.414a8.798 8.798 0 018.797 8.797v58.528a10.153 10.153 0 01-10.156 10.156h-10.691c-5.614 0-10.16-4.547-10.16-10.156zm0 0"/><path d="M199.227 113.977V55.449a8.798 8.798 0 018.796-8.797h13.415a8.798 8.798 0 018.796 8.797v58.528a10.153 10.153 0 01-10.156 10.156h-10.691c-5.61 0-10.16-4.547-10.16-10.156zm0 0"/><path d="M168.223 113.977V55.449a8.798 8.798 0 018.797-8.797h13.414c4.855 0 8.793 3.942 8.793 8.797v58.528a10.153 10.153 0 01-10.157 10.156H178.38c-5.61 0-10.156-4.547-10.156-10.156zm0 0M320.223 132.133V71.69c0-5.015-3.86-9.113-8.63-9.125-11.327-.023-20.519 9.633-20.519 21.543v81.942c0 10.558-4.012 20.125-10.496 27.137l30.207-31.395c6.04-6.273 9.438-14.832 9.438-23.762zm0 0"/><path d="M261.242 113.977V55.449a8.798 8.798 0 018.797-8.797h13.414c4.856 0 8.793 3.942 8.793 8.797v58.528c0 5.613-4.547 10.156-10.152 10.156h-10.696c-5.609 0-10.156-4.547-10.156-10.156zm0 0"/></g><path d="M251.086 128.133H240.39c-7.805 0-14.157-6.352-14.157-14.156V55.449c0-7.054 5.739-12.797 12.797-12.797h13.414c7.055 0 12.793 5.743 12.793 12.797v58.528c.004 7.804-6.347 14.156-14.152 14.156zm-12.055-77.48a4.803 4.803 0 00-4.797 4.796v58.528a6.164 6.164 0 006.16 6.156h10.696c3.39 0 6.152-2.762 6.152-6.156V55.449a4.8 4.8 0 00-4.793-4.797zm0 0" fill="#3762cc"/><path d="M220.078 128.133h-10.695c-7.805 0-14.156-6.352-14.156-14.156V55.449c0-7.054 5.742-12.797 12.796-12.797h13.415c7.054 0 12.796 5.743 12.796 12.797v58.528c0 7.804-6.351 14.156-14.156 14.156zm-12.055-77.48a4.803 4.803 0 00-4.796 4.796v58.528a6.163 6.163 0 006.156 6.156h10.695a6.163 6.163 0 006.156-6.156V55.449a4.803 4.803 0 00-4.797-4.797zm0 0" fill="#3762cc"/><path d="M189.07 128.133H178.38c-7.805 0-14.156-6.352-14.156-14.156V55.449c0-7.054 5.738-12.797 12.797-12.797h13.414c7.054 0 12.793 5.743 12.793 12.797v58.528c0 7.804-6.348 14.156-14.157 14.156zm-12.05-77.48a4.803 4.803 0 00-4.797 4.796v58.528a6.163 6.163 0 006.156 6.156h10.691a6.164 6.164 0 006.16-6.156V55.449a4.803 4.803 0 00-4.796-4.797zm0 0M282.094 128.133h-10.696c-7.804 0-14.156-6.352-14.156-14.156V55.449c0-7.054 5.738-12.797 12.797-12.797h13.414c7.055 0 12.793 5.743 12.793 12.797v58.528c0 7.804-6.348 14.156-14.152 14.156zm-12.055-77.48a4.803 4.803 0 00-4.797 4.796v58.528a6.163 6.163 0 006.156 6.156h10.696a6.163 6.163 0 006.156-6.156V55.449a4.803 4.803 0 00-4.797-4.797zm0 0" fill="#3762cc"/><path d="M251.434 208.984h-42.399c-24.71 0-44.812-20.101-44.812-44.812v-25.95c0-2.206 1.793-4 4-4h118.851V84.114c0-7.043 2.688-13.597 7.563-18.465 4.574-4.562 10.582-7.078 16.914-7.078h.05c6.958.016 12.622 5.899 12.622 13.125v66.336c0 9.895-3.848 19.567-10.559 26.54l-30.203 31.39a4.051 4.051 0 01-1.461.969 44.807 44.807 0 01-30.566 12.054zm-79.211-66.761v21.949c0 20.297 16.511 36.812 36.812 36.812h42.403c12.105 0 23.445-5.968 30.332-15.976a3.999 3.999 0 012.757-1.696l23.375-24.292c5.29-5.493 8.32-13.145 8.32-20.989v-66.34c0-2.82-2.081-5.117-4.636-5.125h-.035c-4.2 0-8.2 1.688-11.266 4.743-3.36 3.355-5.21 7.902-5.21 12.8v54.114c0 2.207-1.794 4-4 4zm0 0" fill="#3762cc"/><path d="M91.777 224.223h-44a8 8 0 01-8-8v-204a8 8 0 018-8h44a8 8 0 018 8v204a8 8 0 01-8 8zm0 0" fill="#4671c6"/><path d="M31.777 211.125H12a8 8 0 01-8-8V23.965a8 8 0 018-8h19.777a8 8 0 018 8v179.16a8 8 0 01-8 8zm0 0" fill="#a4c9ff"/><path d="M396.664 4.223h44c4.422 0 8 3.582 8 8v204c0 4.418-3.578 8-8 8h-44a8 8 0 01-8-8v-204a8 8 0 018-8zm0 0" fill="#4671c6"/><path d="M456.664 17.32h19.781a8 8 0 018 8v179.16a8 8 0 01-8 8h-19.78a8 8 0 01-8-8V25.32c0-4.422 3.581-8 8-8zm0 0" fill="#a4c9ff"/><path d="M91.777 228.223h-44c-6.617 0-12-5.383-12-12v-204c0-6.618 5.383-12 12-12h44c6.618 0 12 5.382 12 12v204c0 6.617-5.382 12-12 12zm-44-220c-2.207 0-4 1.793-4 4v204c0 2.207 1.793 4 4 4h44c2.207 0 4-1.793 4-4v-204c0-2.207-1.793-4-4-4zm0 0" fill="#3762cc"/><path d="M31.777 215.125H12c-6.617 0-12-5.383-12-12V23.965c0-6.617 5.383-12 12-12h19.777c6.618 0 12 5.383 12 12v179.16c0 6.617-5.382 12-12 12zM12 19.965c-2.207 0-4 1.793-4 4v179.16c0 2.203 1.793 4 4 4h19.777c2.207 0 4-1.797 4-4V23.965c0-2.207-1.793-4-4-4zm0 0M440.664 228.223h-44c-6.617 0-12-5.383-12-12v-204c0-6.618 5.383-12 12-12h44c6.621 0 12 5.382 12 12v204c0 6.617-5.383 12-12 12zm-44-220c-2.203 0-4 1.793-4 4v204c0 2.207 1.797 4 4 4h44c2.207 0 4-1.793 4-4v-204c0-2.207-1.793-4-4-4zm0 0" fill="#3762cc"/><path d="M476.445 216.48h-19.78c-6.618 0-12-5.382-12-12V25.32c0-6.617 5.382-12 12-12h19.78c6.618 0 12 5.383 12 12v179.16c0 6.618-5.386 12-12 12zm-19.78-195.16c-2.204 0-4 1.793-4 4v179.16c0 2.208 1.796 4 4 4h19.78c2.203 0 4-1.792 4-4V25.32c0-2.207-1.797-4-4-4zm0 0" fill="#3762cc"/></svg>