<svg height="487pt" viewBox="-25 0 487 487.244" width="487pt" xmlns="http://www.w3.org/2000/svg"><path d="M160.61 226.52h-21.72v-47.344c0-16.196 13.126-29.324 29.325-29.324h7.59v61.472c0 8.39-6.805 15.196-15.196 15.196zm0 0" fill="#4671c6"/><path d="M160.61 230.52h-21.72a4 4 0 01-4-4v-47.344c0-18.38 14.95-33.324 33.325-33.324h7.59a4 4 0 014 4v61.472c0 10.582-8.614 19.196-19.196 19.196zm-17.72-8h17.715c6.172 0 11.2-5.024 11.2-11.196v-57.472h-3.59c-13.965 0-25.324 11.359-25.324 25.324zm0 0" fill="#3762cc"/><path d="M173.809 162.707l-14.707-10.582c-3.18-2.29-3.907-6.727-1.614-9.906l4.723-6.563a7.096 7.096 0 019.906-1.617l14.707 10.582a7.1 7.1 0 011.613 9.91l-4.722 6.563a7.1 7.1 0 01-9.906 1.613zm0 0" fill="#f9a7a7"/><path d="M177.938 168.04c-2.247 0-4.508-.677-6.465-2.087l-14.703-10.582c-4.965-3.574-6.098-10.523-2.524-15.488l4.723-6.567c3.574-4.96 10.523-6.097 15.492-2.523l14.703 10.582c4.969 3.574 6.098 10.523 2.524 15.488l-4.72 6.567a11.116 11.116 0 01-9.03 4.61zm-1.793-8.58a3.107 3.107 0 004.324-.702l4.722-6.567a3.103 3.103 0 00-.707-4.324l-14.703-10.582a3.112 3.112 0 00-4.328.703l-4.719 6.567a3.099 3.099 0 00.703 4.324zm0 0" fill="#3762cc"/><path d="M330.758 256.992L321 237.824l-92.492 53.403-27.156 159.367h49.793l29.976-151.758c.402-2.027 3.238-2.191 3.871-.223l48.61 151.98h53.242zm0 0" fill="#e0ebfc"/><path d="M339.953 453.438l-3.394 13.007a3.793 3.793 0 00-.125.961v10.504c0 1.133.504 2.203 1.37 2.926l1.833 1.527c.683.57 1.547.88 2.437.88h72.899a3.806 3.806 0 003.808-3.81 20.456 20.456 0 00-11.144-18.214l-19.98-10.215a3.835 3.835 0 00-1.735-.418H343.64a3.82 3.82 0 00-3.688 2.852zm0 0M248.117 453.438l3.395 13.007c.082.313.125.637.125.961v10.504c0 1.133-.5 2.203-1.371 2.926l-1.828 1.527a3.802 3.802 0 01-2.438.88h-72.902a3.808 3.808 0 01-3.809-3.81 20.456 20.456 0 0111.145-18.214l19.984-10.215a3.811 3.811 0 011.734-.418h42.282a3.819 3.819 0 013.683 2.852zm0 0" fill="#a4c9ff"/><g fill="#3762cc"><path d="M386.84 454.59h-53.242a4.003 4.003 0 01-3.813-2.781L283.54 307.223l-28.476 144.14a3.996 3.996 0 01-3.922 3.223h-49.793a4.007 4.007 0 01-3.055-1.418 4.004 4.004 0 01-.887-3.254l27.16-159.363c.2-1.176.91-2.2 1.942-2.793L319 234.359a4.021 4.021 0 013.137-.375 4.012 4.012 0 012.43 2.024l9.757 19.168c.114.222.207.457.278.699l56.082 193.602a4 4 0 01-.641 3.515 4.024 4.024 0 01-3.203 1.598zm-50.32-8h44.996l-54.493-188.125-7.675-15.07-87.211 50.355-26.047 152.84h41.765L277.2 298.059c.54-2.73 2.766-4.668 5.543-4.829 2.774-.18 5.207 1.516 6.059 4.165zm0 0"/><path d="M414.977 487.242h-72.903a7.84 7.84 0 01-5-1.805l-1.828-1.527a7.795 7.795 0 01-2.812-6v-10.504c0-.664.086-1.324.25-1.965l3.398-13.011a7.806 7.806 0 017.555-5.84h42.281a7.83 7.83 0 013.562.86l19.973 10.206c8.223 4.203 13.328 12.547 13.328 21.781.004 4.305-3.5 7.805-7.804 7.805zm-71.192-32.652l-3.355 12.867.008 10.457 1.757 1.375 72.586-.043a16.363 16.363 0 00-8.965-14.457l-19.98-10.215zm-3.832-1.153h.02zm0 0M245.996 487.242h-72.902c-4.305 0-7.809-3.5-7.809-7.805 0-9.234 5.106-17.578 13.324-21.78l19.985-10.212a7.82 7.82 0 013.554-.855h42.282a7.81 7.81 0 017.558 5.84l3.395 13.008c.168.644.25 1.304.25 1.968v10.504a7.791 7.791 0 01-2.809 6l-1.832 1.528a7.821 7.821 0 01-4.996 1.804zm-72.71-8h72.71l1.707-1.476-.07-10.36-3.352-12.816h-42.133l-19.898 10.195a16.378 16.378 0 00-8.965 14.457zm0 0"/></g><path d="M218.805 48.414c-18.735-32.45-57.203-45.316-85.918-28.738-28.719 16.582-36.809 56.328-18.07 88.777 18.734 32.45 57.203 45.317 85.917 28.738 28.715-16.582 36.805-56.328 18.07-88.777zm0 0" fill="#4671c6"/><path d="M209.32 50.395c-.093.054-.175.117-.265.171l-2.368-4.093c-13.816-23.934-44.421-32.137-68.355-18.317-23.934 13.817-32.137 44.422-18.316 68.36l2.363 4.093c-.094.051-.192.09-.281.141-7.301 4.219-9.805 13.555-5.59 20.86 4.219 7.3 13.555 9.8 20.855 5.585.48-.277.938-.578 1.375-.898 15.543 16.59 40.977 20.953 61.512 9.098 20.531-11.856 29.473-36.063 22.875-57.82.496-.22.984-.462 1.465-.74 7.3-4.214 9.805-13.554 5.586-20.855-4.215-7.3-13.555-9.8-20.856-5.585zm0 0" fill="#f9cfcf"/><path d="M175.156 146.164c-13.492 0-26.789-5.086-37.058-14.836-4.153 2.016-8.848 2.465-13.356 1.254a19.147 19.147 0 01-11.699-8.973c-4.684-8.113-2.777-18.246 4.039-24.171l-.531-.922c-14.903-25.809-6.028-58.93 19.781-73.825 25.809-14.902 58.922-6.027 73.82 19.782l.532.918a19.12 19.12 0 0111.257-.383 19.15 19.15 0 0111.7 8.976c5.07 8.786 2.414 19.946-5.84 25.559 5.578 23.203-4.63 47.238-25.551 59.32-8.512 4.91-17.848 7.301-27.094 7.301zm-36.422-23.863c1.075 0 2.137.43 2.922 1.265 14.692 15.684 37.961 19.125 56.59 8.368 18.629-10.754 27.285-32.63 21.05-53.196-.585-1.933.36-4 2.212-4.816.363-.16.722-.34 1.078-.543 5.383-3.11 7.23-10.012 4.125-15.395a11.199 11.199 0 00-6.844-5.25 11.206 11.206 0 00-8.488 1.094c-.086.055-.219.145-.262.168a3.995 3.995 0 01-5.527-1.426l-2.363-4.097c-12.7-21.989-40.907-29.54-62.895-16.852-10.652 6.149-18.27 16.078-21.453 27.957s-1.55 24.29 4.598 34.942l2.363 4.093c.535.922.676 2.02.398 3.047a4.001 4.001 0 01-1.886 2.426c-.075.043-.29.156-.368.195-5.27 3.043-7.12 9.95-4.015 15.332a11.199 11.199 0 006.844 5.25c2.91.778 5.94.375 8.546-1.129.364-.207.7-.433 1.024-.668a3.978 3.978 0 012.351-.765zm0 0" fill="#3762cc"/><path d="M156.098 107.082a5.09 5.09 0 01-6.953-1.86l-4.239-7.347a5.084 5.084 0 011.86-6.95 5.09 5.09 0 016.953 1.86l4.242 7.348a5.089 5.089 0 01-1.863 6.949zm0 0M197.8 83.008a5.094 5.094 0 01-6.952-1.863l-4.239-7.348a5.082 5.082 0 011.864-6.95 5.085 5.085 0 016.949 1.86l4.242 7.348a5.09 5.09 0 01-1.863 6.953zm0 0" fill="#3762cc"/><path d="M195.676 161.723l29.656-17.118-2.621-16.164-.035.02a5.071 5.071 0 00-.465-1.14l-4.809-8.329a49.8 49.8 0 01-17.156 16.406 49.81 49.81 0 01-22.785 6.657l4.82 8.351c.203.352.457.66.73.953l-.027.016zm0 0" fill="#f9cfcf"/><path d="M180.36 119.223c-.313 0-.626-.008-.934-.032-3.79-.242-6.906-2.007-8.54-4.843a3.997 3.997 0 011.462-5.465 3.999 3.999 0 015.464 1.465c.27.46 1.086.793 2.13.863 1.652.102 3.663-.434 5.484-1.484 3.71-2.141 4.922-5.286 4.344-6.286a4.003 4.003 0 011.468-5.464 3.995 3.995 0 015.461 1.468c3.16 5.47-.035 13.032-7.273 17.207-2.895 1.672-6.078 2.57-9.067 2.57zm0 0" fill="#3762cc"/><path d="M158.234 71.98l-49.03 28.31a1.372 1.372 0 01-1.876-.5l-7.863-13.626C86.168 63.133 94.059 33.68 117.094 20.38l8.511-4.914c14.977-8.649 34.13-3.516 42.778 11.465l1.312 2.273c8.649 14.98 3.516 34.129-11.46 42.777zm0 0" fill="#4671c6"/><path d="M217.82 45.055l-9.191 5.308c-15.211 8.782-34.664 3.57-43.45-11.644l-15.413-26.703 4.699-2.711c18.957-10.946 43.2-4.45 54.144 14.508l10.184 17.636a2.641 2.641 0 01-.973 3.606zm0 0" fill="#4671c6"/><path d="M108.523 104.473a5.37 5.37 0 01-4.66-2.684L96 88.164c-14.383-24.906-5.816-56.871 19.09-71.25L123.602 12c7.664-4.426 16.457-5.797 25.023-3.95l3.836-2.214c20.832-12.027 47.574-4.867 59.605 15.973l10.184 17.636a6.606 6.606 0 01.664 5.04 6.614 6.614 0 01-3.098 4.035l-9.187 5.304a35.777 35.777 0 01-34.156.903c-2.536 8.656-8.336 16.152-16.243 20.718l-49.027 28.309a5.329 5.329 0 01-2.68.719zm32.665-89.215c-4.72 0-9.372 1.238-13.586 3.672l-8.512 4.914c-21.086 12.176-28.336 39.234-16.164 60.32l6.55 11.348L156.23 68.52c7.489-4.325 12.528-12.043 13.493-20.653a4.002 4.002 0 012.379-3.226 4.005 4.005 0 013.984.46 27.797 27.797 0 0030.543 1.797l8.016-4.628-9.5-16.458c-9.829-17.015-31.66-22.87-48.68-13.042l-2.863 1.648c-.11.21-.243.41-.387.598a4.008 4.008 0 01-4.274 1.367 27.563 27.563 0 00-7.754-1.125zm13.277-5.953h.02zm0 0" fill="#3762cc"/><path d="M321.047 237.824l-49.29-85.37 25.481-14.712-22.718-39.344-51.875 29.954c.007.035.023.07.035.105l.035-.02 1.836 11.333a7.099 7.099 0 01-3.457 7.285l-21.172 12.222a7.1 7.1 0 01-8.035-.648l-8.895-7.258.024-.016c-.024-.027-.04-.062-.067-.085L130.25 181.69l22.715 39.348 26.297-15.184 49.289 85.368zm0 0" fill="#6bdddd"/><path d="M228.555 295.227a3.987 3.987 0 01-3.465-2L177.8 211.32l-22.835 13.184a4.006 4.006 0 01-5.465-1.465l-22.715-39.348a4.016 4.016 0 01-.398-3.035 3.995 3.995 0 011.863-2.43l49.11-28.351-3.36-5.824c-.7-1.211-.719-2.7-.043-3.926a3.993 3.993 0 013.336-2.07c7.43-.325 14.48-2.383 20.957-6.125 6.477-3.739 11.785-8.813 15.781-15.09.75-1.18 2.004-1.903 3.461-1.852 1.399.032 2.68.79 3.375 2l3.363 5.82 48.29-27.878a3.998 3.998 0 015.465 1.465l22.714 39.347a3.997 3.997 0 01-1.46 5.465l-22.016 12.711 47.285 81.902a3.997 3.997 0 01-1.461 5.465l-92.492 53.403a3.991 3.991 0 01-2 .539zm-49.293-93.372c1.383 0 2.726.715 3.468 2l47.29 81.907 85.562-49.403-47.289-81.902a3.998 3.998 0 011.46-5.465l22.017-12.71-18.715-32.419-47.621 27.492a4 4 0 01-6.602-1.785c-.008-.03-.02-.062-.027-.093-.04-.118-.063-.165-.063-.165l-1.726-2.988a54.23 54.23 0 01-14.77 12.54A54.33 54.33 0 01184 145.386l1.746 3.02.031.042c.11.11.235.25.328.371.208.258.375.535.504.825.266.554.395 1.144.395 1.73 0 1.36-.695 2.68-1.953 3.426l-.028.015c-.285.168-.59.301-.894.391l-48.414 27.95 18.715 32.417 22.832-13.183a4.002 4.002 0 012-.536zm0 0" fill="#3762cc"/><path d="M134.715 189.426L47.719 256.89c-.024.015-.047.035-.07.05l-43.032 28.29c-.488.32-.64.968-.347 1.476a7.935 7.935 0 0010.347 3.168l24.29-11.824c1.179-.574 2.198 1.015 1.187 1.847l-6.465 5.329a3.774 3.774 0 004.285 6.184l35.559-20.532a6.687 6.687 0 002.332-2.246l4.457-7.082a7.55 7.55 0 012.433-2.41l68.082-41.899zm0 0M433.027 38.21a1.102 1.102 0 00-1.453-.433L385.56 60.895c-.028.011-.055.027-.079.039l-107.3 43.804 16.375 28.364 75.386-40.747a7.541 7.541 0 013.305-.906l8.363-.32a6.708 6.708 0 003.11-.895l35.558-20.53a3.782 3.782 0 001.57-4.794 3.777 3.777 0 00-4.78-2.012l-7.844 2.938c-1.23.46-2.094-1.219-1.008-1.953l22.383-15.125a7.939 7.939 0 002.43-10.547zm0 0" fill="#f9cfcf"/><path d="M36.023 295.922a7.746 7.746 0 01-6.27-3.188 7.727 7.727 0 01-1.487-5.05l-11.899 5.789c-5.61 2.73-12.445.636-15.562-4.766a5.11 5.11 0 011.613-6.816l42.91-28.207 86.938-67.418a4.052 4.052 0 013.222-.766 4.002 4.002 0 012.692 1.926l16.062 27.82a3.996 3.996 0 01-1.367 5.406l-68.078 41.899c-.461.285-.86.68-1.149 1.137l-4.457 7.078a10.786 10.786 0 01-3.714 3.578L39.91 294.875a7.747 7.747 0 01-3.887 1.047zm-26.05-9.43c.93.293 1.96.238 2.894-.21l24.29-11.825c2.366-1.148 5.113-.383 6.53 1.832 1.422 2.211.981 5.031-1.05 6.703l-4.367 3.594 33.207-19.168c.378-.219.71-.54.945-.91l4.46-7.082a11.618 11.618 0 013.716-3.684l64.773-39.863-11.824-20.484-83.375 64.656a6.857 6.857 0 01-.176.129zm0 0M294.555 137.098a3.994 3.994 0 01-3.465-2l-16.375-28.364a3.99 3.99 0 01-.32-3.293 3.983 3.983 0 012.27-2.406L383.862 57.27l45.914-23.067c2.418-1.207 5.364-.324 6.711 2.004.004 0 .004 0 .004.004 3.117 5.402 1.512 12.371-3.656 15.863L421.87 59.48a7.74 7.74 0 013.633 3.817 7.768 7.768 0 01-3.223 9.867L386.72 93.7a10.783 10.783 0 01-4.969 1.43l-8.352.316a3.585 3.585 0 00-1.55.426l-75.395 40.75a3.99 3.99 0 01-1.898.477zm-10.621-30.391l12.14 21.023 71.969-38.898a11.677 11.677 0 015.047-1.379l8.363-.32c.45-.016.883-.14 1.27-.363l33.207-19.172-5.309 1.984c-2.457.926-5.121-.105-6.328-2.441-1.207-2.34-.496-5.102 1.684-6.575l22.378-15.12a3.932 3.932 0 001.63-2.4l-42.637 21.427c-.055.027-.192.09-.25.113zm0 0" fill="#3762cc"/></svg>