<svg height="512" viewBox="0 0 256 256" width="512" xmlns="http://www.w3.org/2000/svg"><path d="M200.788 163.777c0 40.135-32.653 72.788-72.788 72.788s-72.788-32.652-72.788-72.788v-43.438c0-40.135 32.652-72.788 72.788-72.788 40.135 0 72.788 32.652 72.788 72.788z" fill="#a4c9ff"/><path d="M195.5 190.964c-10.795 26.703-36.975 45.6-67.5 45.6-30.526 0-56.705-18.897-67.5-45.6H47.984c11.349 33.306 42.918 57.34 80.016 57.34s68.667-24.034 80.016-57.34z" fill="#e0ebfc"/><path d="M128 238.564c-41.238 0-74.788-33.55-74.788-74.788v-43.438C53.212 79.1 86.762 45.55 128 45.55c41.237 0 74.787 33.55 74.787 74.788v43.438c0 41.239-33.55 74.788-74.787 74.788zm0-189.013c-39.032 0-70.788 31.756-70.788 70.788v43.438c0 39.032 31.755 70.788 70.788 70.788s70.787-31.756 70.787-70.788v-43.438c0-39.032-31.755-70.788-70.787-70.788z" fill="#3762cc"/><path d="M128 250.305c-37.03 0-69.946-23.588-81.909-58.694a2 2 0 011.893-2.646H60.5a2 2 0 011.854 1.25c10.892 26.941 36.659 44.35 65.646 44.35 28.986 0 54.754-17.408 65.646-44.35a2.001 2.001 0 011.854-1.25h12.516a2 2 0 011.894 2.646c-11.964 35.106-44.881 58.694-81.91 58.694zm-77.171-57.34c12.129 32.021 42.792 53.34 77.171 53.34 34.38 0 65.042-21.318 77.171-53.34h-8.335c-11.789 27.748-38.661 45.6-68.836 45.6s-57.046-17.852-68.836-45.6z" fill="#3762cc"/><path d="M34.081 163.777h-9.783a8.218 8.218 0 01-8.218-8.218v-44.807a8.218 8.218 0 018.218-8.218h9.783zM231.703 163.777h-9.783v-61.243h9.783a8.218 8.218 0 018.218 8.218v44.807a8.219 8.219 0 01-8.218 8.218zM128 18.725c39.039 0 72.773 8.36 88.754 20.485v-3.506C216.754 17.642 177.017 3 128 3S39.246 17.642 39.246 35.703v3.506C55.227 27.084 88.961 18.725 128 18.725zM157.326 245.677l-4.48-15.831c-.362-1.279-1.719-2.024-2.977-1.596-6.868 2.339-14.22 3.617-21.869 3.617s-15.002-1.279-21.869-3.617c-1.258-.428-2.615.317-2.977 1.596l-4.48 15.831c-.34 1.201.313 2.474 1.499 2.864C108.934 251.427 118.285 253 128 253s19.066-1.573 27.828-4.458c1.185-.391 1.838-1.664 1.498-2.865z" fill="#4671c6"/><path d="M34.081 165.776h-9.783c-5.634 0-10.218-4.584-10.218-10.218V110.75c0-5.634 4.583-10.218 10.218-10.218h9.783a2 2 0 012 2v61.243a2 2 0 01-2 2.001zm-9.784-61.243a6.225 6.225 0 00-6.218 6.218v44.808a6.225 6.225 0 006.218 6.218h7.783v-57.243h-7.783zM231.703 165.776h-9.784a2 2 0 01-2-2v-61.243a2 2 0 012-2h9.784c5.634 0 10.218 4.584 10.218 10.218v44.808c0 5.633-4.584 10.217-10.218 10.217zm-7.784-4h7.784a6.225 6.225 0 006.218-6.218V110.75a6.225 6.225 0 00-6.218-6.218h-7.784zM216.754 41.21a2 2 0 01-1.209-.407C199.471 28.605 165.107 20.725 128 20.725s-71.471 7.881-87.545 20.078a2 2 0 01-3.209-1.593v-3.507C37.246 16.243 77.11 1 128 1s90.754 15.243 90.754 34.703v3.507a2.001 2.001 0 01-2 2zM128 16.725c36.217 0 68.863 7.081 86.749 18.645C214.22 18.873 174.71 5 128 5S41.78 18.873 41.251 35.369C59.137 23.806 91.784 16.725 128 16.725zM128 255a90.757 90.757 0 01-28.453-4.559 4.325 4.325 0 01-2.797-5.309l4.48-15.831a4.387 4.387 0 012.174-2.678 4.247 4.247 0 013.373-.266c6.839 2.329 13.98 3.51 21.224 3.51s14.385-1.181 21.225-3.511a4.247 4.247 0 013.374.268 4.38 4.38 0 012.172 2.678l4.48 15.83a4.328 4.328 0 01-2.798 5.309A90.763 90.763 0 01128 255zm-22.6-24.87a.303.303 0 00-.139.036.366.366 0 00-.183.226l-4.48 15.831c-.05.176.042.368.2.42C109.577 249.534 118.729 251 128 251s18.423-1.466 27.201-4.357c.158-.053.25-.244.2-.42l-4.48-15.831a.365.365 0 00-.182-.226.279.279 0 00-.225-.022 69.67 69.67 0 01-22.515 3.725 69.694 69.694 0 01-22.514-3.724.245.245 0 00-.085-.015z" fill="#3762cc"/><path d="M88.378 205.382v-28.104c0-6.484-5.256-11.74-11.74-11.74h-10.86a8.218 8.218 0 01-8.218-8.218v-54.786a8.218 8.218 0 018.218-8.218h124.443a8.218 8.218 0 018.218 8.218v54.786a8.218 8.218 0 01-8.218 8.218h-10.859c-6.484 0-11.74 5.256-11.74 11.74v28.104c0 8.507 6.896 15.403 15.403 15.403h17.008c5.465 0 10.546-2.881 13.292-7.606 8.442-14.524 13.29-31.391 13.29-49.402V55.062c0-20.069-44.152-36.337-98.615-36.337S29.385 34.993 29.385 55.062v108.715c0 18.011 4.849 34.878 13.29 49.402 2.746 4.725 7.827 7.606 13.292 7.606h17.008c8.507 0 15.403-6.897 15.403-15.403z" fill="#f9a7a7"/><path d="M171.633 76.118H84.758a3.522 3.522 0 01-3.522-3.522V50.095a3.522 3.522 0 013.522-3.522h86.875a3.522 3.522 0 013.522 3.522v22.502a3.52 3.52 0 01-3.522 3.521z" fill="#e0ebfc"/><path d="M200.033 222.784h-17.008c-9.597 0-17.403-7.807-17.403-17.402v-28.104c0-7.576 6.164-13.74 13.74-13.74h10.859a6.225 6.225 0 006.218-6.218v-54.786a6.225 6.225 0 00-6.218-6.218H65.778a6.225 6.225 0 00-6.218 6.218v54.786a6.225 6.225 0 006.218 6.218h10.859c7.576 0 13.74 6.164 13.74 13.74v28.104c0 9.596-7.807 17.402-17.403 17.402H55.967c-6.182 0-11.938-3.296-15.021-8.601-8.872-15.265-13.561-32.695-13.561-50.407V55.062c0-21.497 44.195-38.337 100.615-38.337s100.615 16.84 100.615 38.337v108.715c0 17.712-4.689 35.143-13.561 50.407-3.083 5.304-8.839 8.6-15.021 8.6zm-20.671-55.247c-5.371 0-9.74 4.369-9.74 9.74v28.104c0 7.39 6.013 13.402 13.403 13.402h17.008c4.763 0 9.193-2.533 11.563-6.61 8.518-14.655 13.02-31.391 13.02-48.397V55.062c0-18.612-44.244-34.337-96.615-34.337S31.385 36.449 31.385 55.062v108.715c0 17.007 4.502 33.742 13.019 48.397 2.37 4.077 6.801 6.61 11.563 6.61h17.008c7.39 0 13.403-6.013 13.403-13.402v-28.104c0-5.371-4.37-9.74-9.74-9.74h-10.86c-5.634 0-10.218-4.584-10.218-10.218v-54.786c0-5.634 4.583-10.218 10.218-10.218h124.443c5.634 0 10.218 4.584 10.218 10.218v54.786c0 5.634-4.584 10.218-10.218 10.218h-10.859z" fill="#3762cc"/><path d="M171.634 78.118H84.758a5.528 5.528 0 01-5.522-5.521V50.095a5.527 5.527 0 015.522-5.521h86.876a5.527 5.527 0 015.521 5.521v22.502a5.526 5.526 0 01-5.521 5.521zM84.758 48.573c-.839 0-1.522.683-1.522 1.521v22.502c0 .839.683 1.521 1.522 1.521h86.876c.839 0 1.521-.683 1.521-1.521V50.095c0-.839-.683-1.521-1.521-1.521H84.758z" fill="#3762cc"/></svg>