<svg height="512" viewBox="0 0 256 256" width="512" xmlns="http://www.w3.org/2000/svg"><path d="M158.017 53.051H72.331c-.661.046-1.327.151-1.991.329l-3.085.826V41.581h-20.68v18.15c-9.105 2.43-8.538 2.293-9.195 2.637-5.269 2.304-7.911 8.331-5.917 13.81l12.648 34.455a5.02 5.02 0 001.95 2.458l3.201 11.945 47.674-12.774-4.153-15.5 9.95-3.982-4.229-14.388-9.915 2.719-1.457-5.437 70.886-8.271V53.051z" fill="#f9cfcf"/><path d="M48.858 115.956c-.977 0-1.95-.206-2.871-.616a7.002 7.002 0 01-3.755-4.016L29.584 76.868a2 2 0 013.755-1.379l12.648 34.456a3.036 3.036 0 001.627 1.741 3.04 3.04 0 002.382.046L100.3 91.601l-3.163-10.759-37.07 10.166a2 2 0 01-2.408-1.245l-7.306-20.072a1.999 1.999 0 113.758-1.368l6.676 18.34 37.187-10.198a2 2 0 012.448 1.365l4.229 14.388a2 2 0 01-1.176 2.421l-51.991 20.807c-.851.34-1.739.51-2.626.51z" fill="#3762cc"/><path d="M49.261 127.038a2 2 0 01-1.931-1.483l-3.023-11.281a6.971 6.971 0 01-2.073-2.95l-12.65-34.456c-2.328-6.398.711-13.538 6.92-16.299l.037-.02c.705-.382.76-.412 8.033-2.354V41.581a2 2 0 012-2h20.68a2 2 0 012 2V51.6l.568-.152a12.575 12.575 0 012.369-.393c.046-.003.093-.005.139-.005h85.688a2 2 0 012 2v14.354c0 1.015-.76 1.869-1.769 1.986l-68.587 8.002.337 1.258 7.974-2.187a2.002 2.002 0 012.448 1.365l4.229 14.388a2 2 0 01-1.176 2.421l-8.302 3.322 3.693 13.785a2.003 2.003 0 01-.199 1.518 2.006 2.006 0 01-1.215.932l-47.673 12.774c-.172.048-.346.07-.517.07zm-.687-83.457v16.15a2 2 0 01-1.484 1.932c-7.366 1.966-8.335 2.236-8.645 2.403l-.138.073a1.854 1.854 0 01-.127.061c-4.329 1.893-6.455 6.854-4.84 11.293l12.647 34.45a3.02 3.02 0 001.18 1.482c.405.27.698.677.824 1.147l2.684 10.013 43.81-11.738-3.635-13.566a2 2 0 011.188-2.375L100.3 91.6l-3.163-10.758-8.02 2.199a2.001 2.001 0 01-2.461-1.411l-1.457-5.438a2 2 0 011.7-2.504l69.118-8.064V55.051H72.403a8.49 8.49 0 00-1.546.261l-3.086.827a2.002 2.002 0 01-2.517-1.932V43.581z" fill="#3762cc"/><path d="M78.336 117.247l-29.074 7.79 4.713 108.044-3.069 17.546A2.024 2.024 0 0052.9 253h20.86a2.024 2.024 0 001.997-2.356l-2.919-17.563 7.566-91.809z" fill="#f9cfcf"/><path d="M221.908 107.253h-19.49c-.792 0-1.577.155-2.309.456l-11.075 4.554H96.935l-18.599 4.984 2.067 24.026 108.631-10.7 12.695.879a6.08 6.08 0 002.586-.385l19.038-7.273a4.047 4.047 0 002.603-3.781v-8.712a4.048 4.048 0 00-4.048-4.048z" fill="#f9cfcf"/><path d="M73.759 255h-20.86a4.015 4.015 0 01-3.082-1.436 4.013 4.013 0 01-.882-3.282l3.031-17.332-4.703-107.826a2 2 0 011.48-2.019l29.074-7.79a1.997 1.997 0 012.51 1.76l2.066 24.025c.01.112.011.224.001.335l-7.545 91.562 2.878 17.318A4.022 4.022 0 0173.759 255zM51.33 126.554l4.643 106.44c.007.144-.003.289-.028.432l-3.069 17.546 20.883.028-2.895-17.591a2.028 2.028 0 01-.021-.492l7.552-91.641-1.848-21.479z" fill="#3762cc"/><path d="M80.402 143.272a1.996 1.996 0 01-1.992-1.829l-2.066-24.025a1.998 1.998 0 011.475-2.103l18.599-4.984c.169-.045.343-.068.518-.068h91.703l10.71-4.404a8.051 8.051 0 013.07-.606h19.49a6.055 6.055 0 016.048 6.048v8.712c0 2.49-1.563 4.76-3.89 5.649l-19.038 7.272a8.098 8.098 0 01-3.438.512l-12.527-.868-108.465 10.685a2.164 2.164 0 01-.197.009zm.071-24.527l1.749 20.338 106.615-10.501a1.87 1.87 0 01.335-.005l12.695.879a4.096 4.096 0 001.733-.258l19.038-7.272a2.06 2.06 0 001.317-1.913v-8.712a2.05 2.05 0 00-2.048-2.048h-19.49c-.534 0-1.055.103-1.55.306l-11.074 4.554c-.241.099-.5.15-.761.15H97.198z" fill="#3762cc"/><path d="M85.553 141.273v25.17a2.024 2.024 0 01-2.024 2.024H48.667a2.024 2.024 0 01-2.023-2.091l1.517-45.443 30.175-6.392z" fill="#4671c6"/><path d="M78.336 114.54l17.773-5.359h28.23c1.118 0 2.024.906 2.024 2.024v29.877a2.025 2.025 0 01-2.12 2.022l-38.69-1.831z" fill="#4671c6"/><path d="M83.529 170.467H48.667a3.992 3.992 0 01-2.892-1.226 3.99 3.99 0 01-1.13-2.932l1.517-45.444a2.002 2.002 0 011.585-1.89l30.092-6.374 17.692-5.335c.187-.056.382-.085.577-.085h28.229a4.028 4.028 0 014.024 4.024v29.877a4.04 4.04 0 01-1.247 2.912 4.045 4.045 0 01-2.968 1.107l-36.595-1.732v23.074a4.025 4.025 0 01-4.022 4.024zm-33.422-47.904l-1.464 43.879 34.886.024.023-25.194a2 2 0 012.095-1.997l38.689 1.831.025-29.901-.024-.024H96.403l-17.49 5.274a2.16 2.16 0 01-.163.042z" fill="#3762cc"/><path d="M85.552 143.273a2 2 0 01-1.93-1.479l-5.15-19.076a2 2 0 113.861-1.043l5.15 19.076a2 2 0 01-1.931 2.522z" fill="#3762cc"/><path d="M90.671 92.201l-3.258-8.95c-2.581-7.091 1.075-14.933 8.167-17.514l8.95-3.258c7.091-2.581 14.933 1.075 17.514 8.167l3.258 8.95c2.581 7.091-1.075 14.933-8.167 17.514l-8.95 3.258c-7.092 2.581-14.933-1.075-17.514-8.167z" fill="#f9a7a7"/><path d="M103.527 103.193c-6.401 0-12.423-3.953-14.735-10.308l-3.258-8.95c-1.432-3.932-1.246-8.186.522-11.978s4.907-6.668 8.84-8.1l8.95-3.258c3.933-1.431 8.186-1.245 11.978.523s6.668 4.908 8.1 8.839l3.257 8.95c1.432 3.932 1.246 8.186-.522 11.978s-4.907 6.668-8.84 8.1l-8.95 3.258a15.584 15.584 0 01-5.342.946zm5.684-39.544c-1.346 0-2.694.236-3.997.709l-8.95 3.258a11.588 11.588 0 00-6.582 6.031 11.59 11.59 0 00-.389 8.919l3.257 8.95c2.201 6.044 8.908 9.17 14.951 6.972l8.95-3.258a11.588 11.588 0 006.582-6.031 11.594 11.594 0 00.39-8.919l-3.258-8.95a11.593 11.593 0 00-6.031-6.583 11.65 11.65 0 00-4.923-1.098z" fill="#3762cc"/><path d="M175.369 77.402h-9.525c-7.547 0-13.664-6.118-13.664-13.664v-9.525c0-7.547 6.118-13.664 13.664-13.664h9.525c7.547 0 13.664 6.118 13.664 13.664v9.525c.001 7.546-6.117 13.664-13.664 13.664z" fill="#f9a7a7"/><path d="M175.369 79.402h-9.524c-8.637 0-15.664-7.027-15.664-15.664v-9.525c0-8.637 7.027-15.664 15.664-15.664h9.524c8.637 0 15.664 7.027 15.664 15.664v9.525c0 8.637-7.027 15.664-15.664 15.664zm-9.524-36.853c-6.432 0-11.664 5.232-11.664 11.664v9.525c0 6.432 5.232 11.664 11.664 11.664h9.524c6.432 0 11.664-5.232 11.664-11.664v-9.525c0-6.432-5.232-11.664-11.664-11.664z" fill="#3762cc"/><path d="M59.351 54.646c-12.122 0-21.95-9.827-21.95-21.95V24.95C37.401 12.827 47.228 3 59.351 3 71.473 3 81.3 12.827 81.3 24.95v7.747c0 12.122-9.827 21.949-21.949 21.949z" fill="#f9cfcf"/><path d="M59.351 56.646c-13.206 0-23.949-10.744-23.949-23.95V24.95C35.401 11.744 46.145 1 59.351 1S83.3 11.744 83.3 24.95v7.747c0 13.205-10.743 23.949-23.949 23.949zm0-51.646c-11 0-19.949 8.949-19.949 19.95v7.747c0 11 8.949 19.95 19.949 19.95S79.3 43.697 79.3 32.696V24.95C79.3 13.949 70.351 5 59.351 5z" fill="#3762cc"/><ellipse cx="48.955" cy="27.538" fill="#f9cfcf" rx="5.611" ry="7.3"/><path d="M48.955 36.837c-4.196 0-7.61-4.172-7.61-9.3s3.414-9.3 7.61-9.3c2.1 0 4.049 1.007 5.489 2.837a2 2 0 11-3.143 2.475c-.386-.49-1.203-1.312-2.347-1.312-1.957 0-3.61 2.427-3.61 5.3s1.653 5.3 3.61 5.3c.417 0 .826-.109 1.219-.326a2 2 0 111.93 3.504 6.447 6.447 0 01-3.148.822zM65.878 32.353a3.122 3.122 0 01-3.122-3.122v-3.745a3.122 3.122 0 016.244 0v3.745a3.122 3.122 0 01-3.122 3.122z" fill="#3762cc"/><g><path d="M72.072 44.029H68.95a2 2 0 010-4h3.122a2 2 0 010 4z" fill="#3762cc"/></g><g><path d="M67.254 65.667a2 2 0 01-2-2v-9.46a2 2 0 014 0v9.46a2 2 0 01-2 2z" fill="#3762cc"/></g></svg>