<svg height="512" viewBox="0 0 256 256" width="512" xmlns="http://www.w3.org/2000/svg"><path d="M188.992 43.506l-54.397 31.701-46.506 45.925v30.854l29.031-17.519 35.654-40.224 42.701-33.856 5.237-.915a5.134 5.134 0 003.781-2.912l13.947-30.319a3.082 3.082 0 00-1.259-3.956l-2.207-1.273a3.081 3.081 0 00-3.705.477z" fill="#f9cfcf"/><path d="M88.089 153.986a2 2 0 01-2-2v-30.854c0-.535.214-1.047.595-1.423l46.506-45.926c.119-.118.253-.221.398-.305l54.179-31.573 22.097-21.839a5.093 5.093 0 016.11-.787l2.207 1.273a5.058 5.058 0 012.077 6.524l-13.947 30.319a7.133 7.133 0 01-5.255 4.046l-4.736.827L154.155 95.7l-35.537 40.093a2.046 2.046 0 01-.464.386l-29.031 17.52a2.007 2.007 0 01-1.034.287zm2-32.018v26.475l25.736-15.531 35.452-39.996c.078-.087.163-.168.255-.241l42.7-33.856c.261-.207.569-.346.898-.403l5.237-.915a3.133 3.133 0 002.308-1.777l13.947-30.319a1.075 1.075 0 00-.441-1.387l-2.208-1.274a1.08 1.08 0 00-1.298.167l-22.277 22.017c-.12.118-.254.221-.399.306L135.82 76.807zm98.903-78.462h.01z" fill="#3762cc"/><path d="M40.662 66.628c-4.513 4.513-4.513 11.83 0 16.343l6.026 5.993 10.815 40.364 50.152-13.438-8.315-31.034 16.653-17.741-10.429-11.838-11.527 9.788-.897-3.347c-1.571-5.864-7.599-9.344-13.463-7.773l-3.217.862V41.533H54.705v19.103s-8.381 1.183-14.043 5.992z" fill="#f9cfcf"/><path d="M61.984 172.058v65.614l-1.963 11.74A3.08 3.08 0 0063.059 253h41.578a2.054 2.054 0 002.054-2.054v-2.523a4.108 4.108 0 00-2.966-3.946l-23.528-6.806 7.892-65.013v-51.526l-30.586 8.195z" fill="#f9cfcf"/><path d="M104.638 255H63.06a5.072 5.072 0 01-3.878-1.798 5.073 5.073 0 01-1.133-4.121l1.936-11.575v-65.343l-4.471-42.626a1.998 1.998 0 011.472-2.14l30.586-8.196a1.997 1.997 0 012.517 1.932v51.526c0 .081-.005.161-.015.241l-7.687 63.324 21.894 6.333a6.136 6.136 0 014.41 5.867v2.522a4.058 4.058 0 01-4.053 4.054zM59.67 130.817l4.304 41.032c.007.069.011.139.011.208v65.614c0 .11-.009.221-.027.33l-1.963 11.739c-.072.431.12.734.241.877.12.143.389.382.824.382h41.578l.054-2.576c0-.933-.626-1.765-1.521-2.024l-23.528-6.806a2.001 2.001 0 01-1.43-2.163l7.877-64.894v-48.799z" fill="#3762cc"/><path d="M202.421 189.166l4.471-40.942h-29.879l-1.554 33.581 6.848 55.867-20.671 6.958a3.08 3.08 0 00-2.098 2.92v2.37a3.081 3.081 0 003.081 3.081h37.737a4.107 4.107 0 004.036-4.868l-1.972-10.46v-48.507z" fill="#f9cfcf"/><path d="M200.356 255h-37.737a5.086 5.086 0 01-5.08-5.081v-2.37a5.076 5.076 0 013.46-4.815l19.125-6.438-6.65-54.248a1.977 1.977 0 01-.013-.335l1.554-33.581a2.001 2.001 0 011.998-1.908h29.88a2.002 2.002 0 011.988 2.218l-4.46 40.833v48.21l1.938 10.276a6.092 6.092 0 01-1.301 5.029 6.084 6.084 0 01-4.702 2.21zm-22.891-73.271l6.828 55.7a2 2 0 01-1.348 2.139l-20.671 6.958a1.08 1.08 0 00-.735 1.024v2.37c0 .596.484 1.081 1.08 1.081h37.737a2.1 2.1 0 001.623-.763 2.1 2.1 0 00.448-1.735l-1.973-10.46a2.09 2.09 0 01-.034-.371v-48.506c0-.073.004-.145.012-.217l4.229-38.725h-25.74z" fill="#3762cc"/><path d="M171.523 148.224v38.018a2 2 0 002 2h31.587a2 2 0 002-2v-38.018z" fill="#6bdddd"/><path d="M205.11 190.242h-31.587c-2.206 0-4-1.794-4-4v-38.018a2 2 0 012-2h35.587a2 2 0 012 2v38.018c0 2.206-1.794 4-4 4zm-31.587-40.018v36.018h31.587v-36.018z" fill="#3762cc"/><path d="M207.11 148.224h-42.256V92.596c0-6.322 5.125-11.446 11.446-11.446h19.363c6.322 0 11.446 5.125 11.446 11.446v55.628z" fill="#f9cfcf"/><path d="M207.11 150.224h-42.256a2 2 0 01-2-2V92.596c0-7.415 6.032-13.446 13.446-13.446h19.363c7.414 0 13.446 6.032 13.446 13.446v55.628c.001 1.105-.894 2-1.999 2zm-40.256-4h38.256V92.596c0-5.208-4.237-9.446-9.446-9.446h-19.363c-5.209 0-9.446 4.238-9.446 9.446v53.628z" fill="#3762cc"/><path d="M201.121 103.748c4.564-4.564 4.512-11.995-.154-16.494-4.581-4.416-11.96-4.076-16.459.423l-15.904 15.904-32.314-27.438-10.428 11.837 38.267 40.766a8.214 8.214 0 0011.797.188z" fill="#f9cfcf"/><path d="M170.123 133.339l-.168-.001a10.125 10.125 0 01-7.284-3.222L124.404 89.35a1.998 1.998 0 01-.043-2.69l10.428-11.838a2.001 2.001 0 012.796-.203l30.908 26.245 14.601-14.601a2 2 0 112.828 2.828l-15.904 15.904a1.998 1.998 0 01-2.709.11l-30.816-26.167-7.927 8.999 37.021 39.44a6.163 6.163 0 004.432 1.96 6.205 6.205 0 004.493-1.818l18.924-18.917a2 2 0 012.828 2.829l-18.924 18.917a10.129 10.129 0 01-7.217 2.991z" fill="#3762cc"/><path d="M168.525 94.119c-12.753 0-23.091-10.338-23.091-23.091v-8.15c0-12.753 10.338-23.091 23.09-23.091 12.753 0 23.091 10.338 23.091 23.091v8.15c0 12.753-10.338 23.091-23.09 23.091z" fill="#f9cfcf"/><path d="M168.524 96.119c-13.835 0-25.091-11.256-25.091-25.091v-8.149c0-13.835 11.256-25.091 25.091-25.091s25.091 11.256 25.091 25.091v8.149c0 13.835-11.256 25.091-25.091 25.091zm0-54.331c-11.63 0-21.091 9.461-21.091 21.091v8.149c0 11.629 9.461 21.091 21.091 21.091s21.091-9.461 21.091-21.091v-8.149c0-11.629-9.461-21.091-21.091-21.091z" fill="#3762cc"/><ellipse cx="178.161" cy="64.549" fill="#f9cfcf" rx="5.714" ry="7.434"/><path d="M178.161 73.983a6.536 6.536 0 01-3.189-.833 2 2 0 111.93-3.504c.405.223.829.336 1.26.336 2.013 0 3.713-2.488 3.713-5.434 0-2.945-1.7-5.434-3.713-5.434-1.18 0-2.021.846-2.419 1.35a2 2 0 11-3.143-2.475c1.46-1.854 3.436-2.875 5.562-2.875 4.253 0 7.713 4.232 7.713 9.434-.001 5.203-3.461 9.435-7.714 9.435zM160.599 69.163a3.765 3.765 0 003.765-3.765v-4.517a3.765 3.765 0 00-7.53 0v4.517a3.765 3.765 0 003.765 3.765zM156.894 82.834h-3.765a2 2 0 010-4h3.765a2 2 0 010 4zM57.502 131.328a2 2 0 01-1.931-1.483L44.896 90.001l-5.644-5.613c-5.289-5.29-5.289-13.89-.004-19.175a1.76 1.76 0 01.119-.11c4.493-3.817 10.442-5.496 13.338-6.126V41.533a2 2 0 012-2H76.46a2 2 0 012 2V52.2l.699-.187c6.924-1.857 14.058 2.268 15.912 9.187l.079.296 9.119-7.744a2 2 0 012.796.203l10.428 11.838a1.998 1.998 0 01-.043 2.69l-15.89 16.93 8.027 29.959a2.003 2.003 0 01-.199 1.518 2.006 2.006 0 01-1.215.932L58.021 131.26a2.022 2.022 0 01-.519.068zM42.021 68.099c-3.67 3.73-3.651 9.75.056 13.458l6.021 5.989c.25.249.431.56.521.9l10.298 38.432 46.289-12.402-7.798-29.103c-.18-.668 0-1.382.474-1.886l15.407-16.415-7.927-8.999-10.03 8.517a2 2 0 01-3.227-1.006l-.897-3.348c-1.283-4.791-6.226-7.642-11.014-6.359l-3.217.862a1.997 1.997 0 01-2.517-1.932V43.533H56.705v17.103c0 .997-.733 1.841-1.721 1.98-.076.011-7.827 1.164-12.963 5.483z" fill="#3762cc"/><path d="M76.46 65.417a2 2 0 01-2-2v-8.609a2 2 0 014 0v8.609a2 2 0 01-2 2z" fill="#3762cc"/><path d="M68.145 57.331c-12.753 0-23.091-10.338-23.091-23.091v-8.15C45.055 13.338 55.393 3 68.145 3c12.753 0 23.09 10.338 23.09 23.091v8.15c.001 12.752-10.337 23.09-23.09 23.09z" fill="#f9cfcf"/><path d="M68.146 59.331c-13.835 0-25.091-11.255-25.091-25.09v-8.15C43.055 12.255 54.311 1 68.146 1s25.091 11.255 25.091 25.09v8.15c-.001 13.835-11.257 25.091-25.091 25.091zm0-54.331c-11.63 0-21.091 9.461-21.091 21.09v8.15c0 11.629 9.461 21.09 21.091 21.09s21.091-9.461 21.091-21.09v-8.15C89.236 14.461 79.775 5 68.146 5z" fill="#3762cc"/><path d="M70.609 36.763a3.765 3.765 0 01-3.765-3.765v-4.517a3.765 3.765 0 017.53 0v4.517a3.765 3.765 0 01-3.765 3.765zM81.682 45.767h-3.766a2 2 0 010-4h3.766a2 2 0 010 4z" fill="#3762cc"/><ellipse cx="55.086" cy="31.695" fill="#f9cfcf" rx="5.741" ry="7.469"/><path d="M55.086 41.164c-4.269 0-7.741-4.248-7.741-9.469s3.473-9.469 7.741-9.469c2.132 0 4.113 1.024 5.58 2.885a2 2 0 01-3.143 2.476c-.4-.508-1.25-1.361-2.438-1.361-2.028 0-3.741 2.504-3.741 5.469s1.713 5.469 3.741 5.469c.434 0 .861-.114 1.27-.339a1.999 1.999 0 012.717.788 1.999 1.999 0 01-.787 2.716 6.57 6.57 0 01-3.199.835z" fill="#3762cc"/><path d="M132.058 130.599l-20.371-32.77-17.071 16.858-38.27 10.322-.726 39.576a2.053 2.053 0 002.053 2.091h32.391a2.054 2.054 0 002.045-2.243l-1.279-13.779z" fill="#4671c6"/><path d="M90.063 168.676h-32.39c-1.097 0-2.124-.431-2.893-1.214s-1.181-1.818-1.16-2.915l.726-39.575a2.002 2.002 0 011.479-1.895l37.76-10.184 16.697-16.488a1.998 1.998 0 013.104.368l20.37 32.77a1.996 1.996 0 01-.823 2.854l-39.984 19.45 1.151 12.4a4.064 4.064 0 01-1.039 3.105 4.067 4.067 0 01-2.998 1.324zm-31.746-42.128l-.697 38.073 32.443.055-1.226-13.837a1.999 1.999 0 011.116-1.983l39.233-19.084-17.877-28.759-15.29 15.099a2.01 2.01 0 01-.885.508z" fill="#3762cc"/><path d="M90.826 152.653a1.999 1.999 0 01-1.983-1.77l-2.74-23.68a2 2 0 011.757-2.217 2.005 2.005 0 012.216 1.757l2.74 23.68a2 2 0 01-1.99 2.23z" fill="#3762cc"/><path d="M164.853 148.224l-30.552-16.419-2.184-1.297-.061.09-3.814-1.872c-6.999-3.436-15.459-.605-18.981 6.35v.001a17.328 17.328 0 00-1.698 10.265l7.184 50.624-13.721 20.588a5.134 5.134 0 00-.327 5.128l.801 1.615a3.08 3.08 0 004.241 1.332l25.944-14.227a4.11 4.11 0 002.016-4.575l-2.406-9.86-1.399-37.417 34.352 20.853 40.334-10.03 2.309-21.147z" fill="#f9cfcf"/><path d="M104.27 227.011a5.113 5.113 0 01-1.531-.237 5.03 5.03 0 01-3.028-2.589l-.801-1.614a7.152 7.152 0 01.454-7.126l13.298-19.953-7.078-49.868c-.56-3.94.096-7.899 1.895-11.45 3.996-7.891 13.705-11.14 21.646-7.242l3.244 1.593c.265.033.526.12.771.265l2.184 1.296 30.034 16.139h41.752a2 2 0 011.677 3.092l-2.214 20.273a2.001 2.001 0 01-1.506 1.724l-40.334 10.03a2.006 2.006 0 01-1.521-.231l-31.177-18.925 1.253 33.502 2.357 9.664a6.118 6.118 0 01-2.997 6.803l-25.943 14.227a5.083 5.083 0 01-2.435.627zm17.739-97.732c-4.48 0-8.815 2.461-10.963 6.701a15.249 15.249 0 00-1.502 9.081l7.185 50.624a2.01 2.01 0 01-.316 1.391l-13.721 20.588a3.144 3.144 0 00-.199 3.13l.801 1.614a1.079 1.079 0 001.488.468l25.943-14.227a2.11 2.11 0 001.034-2.348l-2.405-9.86a2.154 2.154 0 01-.056-.399l-1.399-37.417a2.004 2.004 0 01.985-1.799 1.996 1.996 0 012.052.015l33.641 20.42 38.171-9.492 1.916-17.544h-39.809c-.33 0-.655-.082-.946-.238l-30.553-16.419-1.702-1.009a2.027 2.027 0 01-.477-.164l-3.814-1.872a12.115 12.115 0 00-5.354-1.244zm82.574 40.093h.01z" fill="#3762cc"/><path d="M164.855 148.224l-15.403-8.278c-8.744 24.956-10.652 29.348-10.652 29.348a3.081 3.081 0 001.926 4.033l18.503 6.001a60.129 60.129 0 006.532 2.118l.054.017v-.004a60.068 60.068 0 0024.042 1.306 24.538 24.538 0 0015.29-8.624c1.296-1.566 1.964-3.559 1.964-5.592v-20.325z" fill="#6bdddd"/><g><path d="M180.999 185.424a61.846 61.846 0 01-15.57-1.999 1.867 1.867 0 01-.231-.06 61.707 61.707 0 01-6.64-2.153l-18.45-5.983c-1.319-.428-2.419-1.391-3.017-2.643s-.656-2.713-.159-4.008c.052-.124 2.069-4.852 10.632-29.293a1.998 1.998 0 012.834-1.1l14.96 8.04h41.753a2 2 0 012 2v20.325c0 2.54-.86 4.979-2.423 6.867a26.508 26.508 0 01-16.536 9.328 62.26 62.26 0 01-9.153.679zm-14.727-5.911l.047.012a57.731 57.731 0 0023.241 1.263 22.51 22.51 0 0014.045-7.922c.971-1.172 1.505-2.705 1.505-4.316v-18.325h-40.256c-.33 0-.655-.082-.946-.238l-13.344-7.171c-8.011 22.806-9.854 27.101-9.932 27.277-.111.296-.008.615.067.771.074.156.257.438.642.562l18.504 6c.036.012.072.024.108.039a58.135 58.135 0 006.319 2.048z" fill="#3762cc"/></g><g><path d="M71.729 112.716a9.618 9.618 0 01-6.831-2.82L45.277 90.381a2 2 0 112.82-2.836l19.621 19.514a5.653 5.653 0 004.013 1.657l.102-.001a5.653 5.653 0 004.053-1.796l37.403-39.847-7.928-9L74.46 84.313a2 2 0 01-2.59-3.049l32.398-27.511a2 2 0 012.796.202l10.429 11.838a2 2 0 01-.043 2.691l-38.648 41.173a9.62 9.62 0 01-6.9 3.058l-.173.001z" fill="#3762cc"/></g><g><path d="M108.254 67.906l-7.085-7.085c-5.614-5.614-5.614-14.715 0-20.329l7.085-7.085c5.614-5.614 14.715-5.614 20.329 0l7.085 7.085c5.614 5.614 5.614 14.715 0 20.329l-7.085 7.085c-5.614 5.613-14.716 5.613-20.329 0z" fill="#f9a7a7"/></g><g><path d="M118.418 74.116a16.27 16.27 0 01-11.578-4.796l-7.086-7.085c-6.385-6.384-6.385-16.772 0-23.156l7.086-7.085c3.093-3.093 7.204-4.796 11.578-4.796s8.485 1.704 11.578 4.796l7.086 7.085c6.385 6.384 6.385 16.772 0 23.156l-7.086 7.085a16.265 16.265 0 01-11.578 4.796zm0-42.92a12.29 12.29 0 00-8.75 3.625l-7.086 7.085c-4.824 4.825-4.824 12.675 0 17.5l7.086 7.085c2.337 2.337 5.444 3.625 8.75 3.625s6.413-1.287 8.75-3.625l7.086-7.085c4.824-4.825 4.824-12.675 0-17.5l-7.086-7.085a12.29 12.29 0 00-8.75-3.625z" fill="#3762cc"/></g><g><path d="M137.141 93.931l7.085-7.085c5.614-5.614 5.614-14.715 0-20.329l-7.085-7.085c-5.614-5.614-14.715-5.614-20.329 0l-7.085 7.085c-5.614 5.614-5.614 14.715 0 20.329l7.085 7.085c5.614 5.613 14.715 5.613 20.329 0z" fill="#a4c9ff"/></g><g><path d="M126.977 100.133a16.32 16.32 0 01-11.578-4.789l-7.086-7.085c-6.385-6.384-6.385-16.772 0-23.157l7.086-7.085c3.093-3.092 7.204-4.796 11.578-4.796s8.485 1.704 11.578 4.796l7.085 7.085c3.093 3.093 4.797 7.205 4.797 11.579s-1.704 8.486-4.797 11.579l-7.085 7.085a16.325 16.325 0 01-11.578 4.788zm0-42.912a12.29 12.29 0 00-8.75 3.625l-7.086 7.085c-4.824 4.825-4.824 12.675 0 17.5l7.086 7.085c4.824 4.824 12.676 4.824 17.5 0l7.085-7.085c2.338-2.337 3.625-5.445 3.625-8.75s-1.287-6.413-3.625-8.75l-7.085-7.085a12.29 12.29 0 00-8.75-3.625zm10.164 36.71h.01z" fill="#3762cc"/></g></svg>